<svg width="42" height="42" viewBox="0 0 42 42" fill="none" xmlns="http://www.w3.org/2000/svg">
<path d="M32.357 0.883315C32.7194 0.466685 33.2323 0.210938 33.7831 0.172265C34.3339 0.133592 34.8775 0.315156 35.2945 0.677065C37.9888 3.01598 40.1535 5.90234 41.6445 9.14373C41.8755 9.64598 41.8974 10.2194 41.7056 10.7379C41.5138 11.2563 41.1238 11.6774 40.6216 11.9083C40.1193 12.1393 39.5459 12.1613 39.0274 11.9694C38.509 11.7776 38.088 11.3877 37.857 10.8854C36.6149 8.18201 34.811 5.77437 32.5653 3.8229C32.1484 3.46084 31.8923 2.94807 31.8532 2.39727C31.8141 1.84646 31.9953 1.30059 32.357 0.883315Z" fill="black"/>
<path d="M6.70036 0.677178C7.11753 0.314716 7.66159 0.132817 8.21287 0.171496C8.76415 0.210175 9.27748 0.466265 9.63995 0.883429C10.0024 1.30059 10.1843 1.84466 10.1456 2.39594C10.1069 2.94721 9.85086 3.46055 9.4337 3.82301C7.18807 5.77449 5.38412 8.18213 4.14203 10.8855C4.031 11.139 3.87059 11.3678 3.67015 11.5586C3.46972 11.7494 3.23328 11.8984 2.97464 11.9968C2.716 12.0952 2.44034 12.1411 2.16377 12.1318C1.88719 12.1225 1.61524 12.0582 1.36379 11.9427C1.11234 11.8271 0.886433 11.6626 0.699255 11.4588C0.512078 11.255 0.367383 11.0159 0.27362 10.7555C0.179857 10.4952 0.138905 10.2187 0.153155 9.94239C0.167404 9.66602 0.23657 9.39527 0.356614 9.14593C1.8455 5.90437 4.00812 3.01733 6.70036 0.677178Z" fill="black"/>
<path d="M25.6562 35.5833C27.4583 35.5833 28.4103 37.7166 27.2083 39.0583C26.4274 39.9322 25.4706 40.6311 24.4007 41.1093C23.3308 41.5876 22.1719 41.8343 20.9999 41.8333C19.828 41.8343 18.6691 41.5876 17.5992 41.1093C16.5293 40.6311 15.5725 39.9322 14.7916 39.0583C13.6416 37.775 14.4624 35.7687 16.1124 35.5979L16.3416 35.5854L25.6562 35.5833Z" fill="black"/>
<path d="M20.9999 0.166636C23.8291 0.166636 26.2207 2.04789 26.9895 4.62705L27.0853 4.9833L27.102 5.07289C29.3986 6.36851 31.3557 8.18977 32.8128 10.3875C34.27 12.5852 35.1858 15.0968 35.4853 17.7166L35.5436 18.3146L35.5832 18.9166V25.0229L35.627 25.3062C35.9122 26.8413 36.7617 28.214 38.0082 29.1541L38.3561 29.3979L38.6936 29.6041C40.4853 30.6187 39.8603 33.2833 37.9082 33.4875L37.6666 33.5H4.33322C2.19156 33.5 1.44364 30.6583 3.30614 29.6041C4.09995 29.1549 4.78582 28.5374 5.3156 27.7949C5.84537 27.0524 6.20622 26.203 6.37281 25.3062L6.41656 25.0083L6.41864 18.8208C6.54567 16.0997 7.33772 13.4512 8.72548 11.1072C10.1132 8.76315 12.0544 6.79498 14.3791 5.37497L14.8957 5.0708L14.9166 4.98122C15.2113 3.73544 15.881 2.61005 16.8355 1.75692C17.7899 0.903794 18.9831 0.364 20.2541 0.210386L20.6332 0.174969L20.9999 0.166636Z" fill="black"/>
<path d="M32.357 0.883315C32.7194 0.466685 33.2323 0.210938 33.7831 0.172265C34.3339 0.133592 34.8775 0.315156 35.2945 0.677065C37.9888 3.01598 40.1535 5.90234 41.6445 9.14373C41.8755 9.64598 41.8974 10.2194 41.7056 10.7379C41.5138 11.2563 41.1238 11.6774 40.6216 11.9083C40.1193 12.1393 39.5459 12.1613 39.0274 11.9694C38.509 11.7776 38.088 11.3877 37.857 10.8854C36.6149 8.18201 34.811 5.77437 32.5653 3.8229C32.1484 3.46084 31.8923 2.94807 31.8532 2.39727C31.8141 1.84646 31.9953 1.30059 32.357 0.883315Z" stroke="black"/>
<path d="M6.70036 0.677178C7.11753 0.314716 7.66159 0.132817 8.21287 0.171496C8.76415 0.210175 9.27748 0.466265 9.63995 0.883429C10.0024 1.30059 10.1843 1.84466 10.1456 2.39594C10.1069 2.94721 9.85086 3.46055 9.4337 3.82301C7.18807 5.77449 5.38412 8.18213 4.14203 10.8855C4.031 11.139 3.87059 11.3678 3.67015 11.5586C3.46972 11.7494 3.23328 11.8984 2.97464 11.9968C2.716 12.0952 2.44034 12.1411 2.16377 12.1318C1.88719 12.1225 1.61524 12.0582 1.36379 11.9427C1.11234 11.8271 0.886433 11.6626 0.699255 11.4588C0.512078 11.255 0.367383 11.0159 0.27362 10.7555C0.179857 10.4952 0.138905 10.2187 0.153155 9.94239C0.167404 9.66602 0.23657 9.39527 0.356614 9.14593C1.8455 5.90437 4.00812 3.01733 6.70036 0.677178Z" stroke="black"/>
<path d="M25.6562 35.5833C27.4583 35.5833 28.4103 37.7166 27.2083 39.0583C26.4274 39.9322 25.4706 40.6311 24.4007 41.1093C23.3308 41.5876 22.1719 41.8343 20.9999 41.8333C19.828 41.8343 18.6691 41.5876 17.5992 41.1093C16.5293 40.6311 15.5725 39.9322 14.7916 39.0583C13.6416 37.775 14.4624 35.7687 16.1124 35.5979L16.3416 35.5854L25.6562 35.5833Z" stroke="black"/>
<path d="M20.9999 0.166636C23.8291 0.166636 26.2207 2.04789 26.9895 4.62705L27.0853 4.9833L27.102 5.07289C29.3986 6.36851 31.3557 8.18977 32.8128 10.3875C34.27 12.5852 35.1858 15.0968 35.4853 17.7166L35.5436 18.3146L35.5832 18.9166V25.0229L35.627 25.3062C35.9122 26.8413 36.7617 28.214 38.0082 29.1541L38.3561 29.3979L38.6936 29.6041C40.4853 30.6187 39.8603 33.2833 37.9082 33.4875L37.6666 33.5H4.33322C2.19156 33.5 1.44364 30.6583 3.30614 29.6041C4.09995 29.1549 4.78582 28.5374 5.3156 27.7949C5.84537 27.0524 6.20622 26.203 6.37281 25.3062L6.41656 25.0083L6.41864 18.8208C6.54567 16.0997 7.33772 13.4512 8.72548 11.1072C10.1132 8.76315 12.0544 6.79498 14.3791 5.37497L14.8957 5.0708L14.9166 4.98122C15.2113 3.73544 15.881 2.61005 16.8355 1.75692C17.7899 0.903794 18.9831 0.364 20.2541 0.210386L20.6332 0.174969L20.9999 0.166636Z" stroke="black"/>
</svg>
